<svg xmlns="http://www.w3.org/2000/svg" width="35" height="36" viewBox="0 0 35 36">
  <g id="Group_7414" data-name="Group 7414" transform="translate(-153.5 -519.5)">
    <g id="Ellipse_8" data-name="Ellipse 8" transform="translate(153.5 519.5)" fill="none" stroke="#11895b" stroke-width="1">
      <ellipse cx="17.5" cy="18" rx="17.5" ry="18" stroke="none"/>
      <ellipse cx="17.5" cy="18" rx="17" ry="17.5" fill="none"/>
    </g>
    <g id="Group_12" data-name="Group 12" transform="translate(163.893 530.238)">
      <path id="Path_7" data-name="Path 7" d="M0,0H14.317V14.317H0Z" fill="none"/>
      <path id="Path_8" data-name="Path 8" d="M13.938,4.862a5,5,0,0,1-1.433.393,2.5,2.5,0,0,0,1.1-1.38,4.986,4.986,0,0,1-1.584.605A2.495,2.495,0,0,0,7.768,6.755,7.083,7.083,0,0,1,2.626,4.148,2.5,2.5,0,0,0,3.4,7.479a2.486,2.486,0,0,1-1.13-.312V7.2a2.5,2.5,0,0,0,2,2.446,2.511,2.511,0,0,1-1.127.043,2.5,2.5,0,0,0,2.331,1.733,5.007,5.007,0,0,1-3.693,1.033A7.095,7.095,0,0,0,12.7,6.476c0-.107,0-.216-.008-.322a5.068,5.068,0,0,0,1.245-1.292Z" transform="translate(-0.718 -1.488)" fill="#11895b"/>
    </g>
  </g>
</svg>
