<svg xmlns="http://www.w3.org/2000/svg" width="36" height="36" viewBox="0 0 36 36">
  <g id="Group_7415" data-name="Group 7415" transform="translate(-212.5 -519.5)">
    <g id="Ellipse_9" data-name="Ellipse 9" transform="translate(212.5 519.5)" fill="none" stroke="#11895b" stroke-width="1">
      <circle cx="18" cy="18" r="18" stroke="none"/>
      <circle cx="18" cy="18" r="17.5" fill="none"/>
    </g>
    <g id="Group_13" data-name="Group 13" transform="translate(223.548 530.238)">
      <path id="Path_9" data-name="Path 9" d="M0,0H14.317V14.317H0Z" fill="none"/>
      <path id="Path_10" data-name="Path 10" d="M7.965,2c1.621,0,1.823.006,2.459.036a4.395,4.395,0,0,1,1.448.277A2.909,2.909,0,0,1,12.93,3a2.928,2.928,0,0,1,.688,1.057A4.407,4.407,0,0,1,13.9,5.507c.028.636.036.838.036,2.459s-.006,1.823-.036,2.459a4.41,4.41,0,0,1-.277,1.448,3.046,3.046,0,0,1-1.745,1.745,4.407,4.407,0,0,1-1.448.277c-.636.028-.838.036-2.459.036s-1.823-.006-2.459-.036a4.41,4.41,0,0,1-1.448-.277,3.046,3.046,0,0,1-1.745-1.745,4.391,4.391,0,0,1-.277-1.448C2.008,9.789,2,9.586,2,7.965s.006-1.823.036-2.459a4.391,4.391,0,0,1,.277-1.448A3.046,3.046,0,0,1,4.058,2.313a4.391,4.391,0,0,1,1.448-.277C6.142,2.008,6.345,2,7.965,2Zm0,2.983a2.983,2.983,0,1,0,2.983,2.983A2.983,2.983,0,0,0,7.965,4.983Zm3.878-.149a.746.746,0,1,0-.746.746A.746.746,0,0,0,11.843,4.834ZM7.965,6.176a1.79,1.79,0,1,1-1.79,1.79A1.79,1.79,0,0,1,7.965,6.176Z" transform="translate(-0.807 -0.807)" fill="#11895b"/>
    </g>
  </g>
</svg>
